<svg xmlns="http://www.w3.org/2000/svg" width="24.541" height="24.696" viewBox="1148 45 24.541 24.696"><path d="M1158.817 45.064a10.425 10.425 0 00-.61.103c-.65.128-1.379.323-2 .536a9.992 9.992 0 00-.599.224c-1.57.655-2.633 1.36-3.915 2.599a12.302 12.302 0 00-3.48 6.296 6.94 6.94 0 00-.095.57c-.15 1.157-.16 2.842-.013 3.913a5.778 5.778 0 00.056.339 12.49 12.49 0 006.026 8.423c1.552.881 3.174 1.396 5.04 1.579a10.624 10.624 0 001.034.05c.454 0 .912-.028 1.37-.083a12.534 12.534 0 005.959-2.365 8.76 8.76 0 00.386-.31c.803-.679 1.773-1.694 2.31-2.43a5.705 5.705 0 00.13-.182 13.231 13.231 0 001.889-4.451 11.648 11.648 0 00.124-.667 10.312 10.312 0 00.056-.412c.055-.484.066-.938.049-1.638a40.796 40.796 0 00-.009-.287 17.011 17.011 0 00-.068-1.073c-.133-1.354-.447-2.372-1.108-3.768a24.639 24.639 0 00-.062-.13c-1.657-3.435-4.848-5.903-8.615-6.679-.949-.194-2.651-.276-3.643-.181a4.984 4.984 0 00-.212.024zm6.907 14.31a1.767 1.767 0 00.015-.135c.068-.81.04-3.78-.05-4.156l-.079-.305-2.24-.026-2.242-.018v5.058h4.526l.07-.418zm-6.357-2.093l.017 2.511h-2.267c-1.148 0-2.104-.022-2.248-.06a.023.023 0 01-.02-.01.821.821 0 00-.001-.035c-.01-.134-.047-.609-.085-1.15a9.12 9.12 0 01-.016-.29c-.046-1.117.028-3.064.139-3.398a.164.164 0 01.016-.036.076.076 0 01.04-.014c.18-.032.938-.052 1.96-.048a73.841 73.841 0 01.241 0l2.198.027.026 2.503zm4.264-8.39c-.367-.532-1.082-1.28-1.5-1.569a2.973 2.973 0 00-.003-.002c-.16-.109-.4-.248-.58-.33a1.609 1.609 0 00-.097-.043l-.323-.14v6.184h4.203l-.06-.288a5.556 5.556 0 00-.076-.29c-.265-.935-.878-2.375-1.379-3.226a5.378 5.378 0 00-.185-.295zm-4.334 18.836a.036.036 0 00.017-.03c.049-.187.07-1.232.07-3.065v-3.096h-4.203l.061.323a4.662 4.662 0 00.059.272c.228.938.82 2.356 1.36 3.262a6.163 6.163 0 00.186.294c.54.807 1.632 1.76 2.226 1.99a.65.65 0 00.224.05zm5.999-5.899a.766.766 0 00.018-.135c0-.148-.14-.157-2.093-.157h-2.093v6.209l.236-.061a1.685 1.685 0 00.09-.025c.684-.21 1.455-.902 2.13-1.866a9.883 9.883 0 00.858-1.5 6.696 6.696 0 00.046-.103c.3-.687.717-1.907.808-2.362zm-5.912-11.89v3.053h-4.168l.078-.331a14.097 14.097 0 01.884-2.454 9.275 9.275 0 011.122-1.826 5.448 5.448 0 011.247-1.162 8.899 8.899 0 00.01-.007c.871-.568.83-.758.827 2.535a335.044 335.044 0 000 .193zm-6.322 7.325v2.529h-1.578c-1.127 0-1.506-.02-1.605-.09a.068.068 0 01-.026-.032c-.249-.652-.295-3.391-.072-4.434a2.532 2.532 0 01.011-.048l.105-.454h3.165v2.53zm17.565-1.998a2.268 2.268 0 00-.09-.338c-.063-.175-.09-.19-1.189-.192a285.118 285.118 0 00-.363 0 27.669 27.669 0 00-.481.004c-.586.01-1.024.038-1.045.065a.018.018 0 00-.001.003c-.016.052.002.523.053 1.061a6.014 6.014 0 01.003.04c.075.965.03 3.254-.081 3.684l-.044.2h3.14l.104-.462a4.188 4.188 0 00.064-.357c.144-1.043.107-2.817-.07-3.708zm-17.042 7.1c.401 1.543 1.09 3.2 1.718 4.115a6.621 6.621 0 01.081.124c.093.148.15.251.128.251a.147.147 0 01-.045-.013c-.263-.106-1.413-.84-1.864-1.193a3.453 3.453 0 01-.018-.014 11.165 11.165 0 01-2.63-3.099 8.66 8.66 0 01-.195-.363c-.148-.296-.27-.567-.27-.593 0-.026.642-.035 1.426-.026a60.272 60.272 0 01.021 0l1.448.026.2.785zm1.718-14.197a2.493 2.493 0 00-.103.162c-.288.483-.799 1.545-1.072 2.223a7.257 7.257 0 00-.098.258 8.31 8.31 0 00-.043.121c-.129.37-.3.927-.393 1.317l-.2.785-1.448.026-1.456.018.087-.227c.453-1.186 1.997-3.07 3.357-4.09a6.929 6.929 0 01.155-.11c.544-.382 1.306-.817 1.354-.762.02.015-.021.098-.089.203a3.055 3.055 0 01-.05.076zm14.632 13.412c0 .026-.13.314-.296.636a8.196 8.196 0 01-.312.56 11.346 11.346 0 01-3.211 3.364 17.753 17.753 0 01-.322.21c-.28.178-.504.308-.564.328a.043.043 0 01-.012.003c-.052 0 .017-.165.14-.375.618-.994 1.299-2.703 1.665-4.185l.14-.585h1.386a43.975 43.975 0 01.525.003c.428.005.749.017.837.032a.034.034 0 01.024.01zm-3.067-12.506a6.475 6.475 0 00-.325-.26 11.36 11.36 0 00-.062-.045c-.537-.385-1.25-.83-1.334-.825a.007.007 0 00-.008.006.065.065 0 00.006.018c.023.055.112.218.226.428a20187.774 20187.774 0 00.143.26 6.31 6.31 0 01.104.191c.6 1.143 1.44 3.435 1.44 3.978a.106.106 0 00.033.09c.073.062.307.073 1.025.075a129.23 129.23 0 00.337 0 45.386 45.386 0 00.492-.002c.527-.006.903-.02.903-.041 0-.114-.488-1.012-.854-1.57a4.997 4.997 0 00-.109-.155c-.473-.654-1.338-1.57-2.017-2.148z" fill="rgba(255, 126, 22, 1)" fill-rule="evenodd" data-name="Shape 23"/></svg>