<svg viewBox="0 0 128 128" xmlns="http://www.w3.org/2000/svg"><path d="M64 37.943A16.954 16.954 0 1080.953 54.9 16.973 16.973 0 0064 37.943zm0 30.407A13.454 13.454 0 1177.453 54.9 13.468 13.468 0 0164 68.35z"/><path d="M64 17.25A37.689 37.689 0 0026.353 54.9c0 12.2 6.19 25.266 18.4 38.847a126.258 126.258 0 0018.229 16.677 1.747 1.747 0 002.041 0 126.175 126.175 0 0018.227-16.68c12.207-13.581 18.4-26.651 18.4-38.847A37.688 37.688 0 0064 17.25zm0 89.561c-5.787-4.44-34.147-27.456-34.147-51.914a34.147 34.147 0 1168.293 0c0 24.458-28.359 47.474-34.146 51.914z"/></svg>