<svg xmlns="http://www.w3.org/2000/svg" width="35.821" height="35.839" viewBox="0 2 35.821 35.839"><path d="M25.428 2.002H10.412a12.612 12.612 0 00-4.587.788C2.11 4.235.001 7.61.001 12.412V27.41a12.686 12.686 0 00.777 4.568c1.17 3.04 3.62 5.009 7.08 5.64a14.226 14.226 0 002.554.22H25.41c5.612 0 9.274-2.879 10.187-7.837a14.214 14.214 0 00.224-2.573V12.412a16.331 16.331 0 000-.044c0-5.561-2.849-9.199-7.752-10.13a14.157 14.157 0 00-2.641-.236zM10.968 19.92a6.959 6.959 0 006.952 6.953 6.959 6.959 0 006.952-6.953 6.959 6.959 0 00-6.952-6.952 6.959 6.959 0 00-6.952 6.952zm17.183-8.583a2.069 2.069 0 00.377-.591 1.78 1.78 0 00.143-.68 1.514 1.514 0 000-.022 1.793 1.793 0 00-.143-.66 1.851 1.851 0 00-.372-.586 3.266 3.266 0 00-.005-.005c-.09-.072-.179-.161-.268-.215a1.567 1.567 0 00-.111-.068 1.28 1.28 0 00-.212-.094 1.209 1.209 0 00-.111-.048 1.07 1.07 0 00-.23-.059 1.636 1.636 0 00-.348-.037 1.81 1.81 0 00-1.264.52 3.266 3.266 0 00-.005.006 1.851 1.851 0 00-.371.586 1.795 1.795 0 00-.143.66 1.514 1.514 0 000 .021 1.782 1.782 0 00.143.68 2.069 2.069 0 00.376.592c.34.34.788.52 1.272.52a1.786 1.786 0 00.681-.143 2.07 2.07 0 00.591-.377zM26.87 8.272h.002" fill="rgba(255, 255, 255, 1)" fill-rule="evenodd" data-name="Shape 27 copy"/></svg>