<svg xmlns="http://www.w3.org/2000/svg" width="36.869" height="36.869" viewBox="66 1 36.869 36.869"><path d="M84.434 1a18.43 18.43 0 00-10.241 3.107 18.434 18.434 0 00-6.79 8.273 18.436 18.436 0 00-1.394 7.635 18.43 18.43 0 00.345 3.016A18.434 18.434 0 0071.4 32.47a18.436 18.436 0 009.44 5.045c3.575.711 7.282.346 10.65-1.05a18.436 18.436 0 008.273-6.789 18.435 18.435 0 003.107-10.242 18.435 18.435 0 00-5.4-13.035A18.434 18.434 0 0084.435 1zm9.056 12.628L90.472 27.89a2.31 2.31 0 01-.126.397c-.287.67-.83.78-1.556.387l-4.609-3.41-2.304 2.142a1.176 1.176 0 01-.408.337 1.18 1.18 0 01-.514.124l.323-4.608 8.526-7.72c.391-.322 0-.507-.554-.184l-10.46 6.568-4.609-1.429a1.946 1.946 0 01-.296-.115c-.682-.336-.581-.924.494-1.332a3.872 3.872 0 01.01-.004l17.766-6.914c.858-.248 1.583.234 1.352 1.423a2.838 2.838 0 01-.016.076z" fill="rgba(255, 255, 255, 1)" fill-rule="evenodd" data-name="Shape 26 copy"/></svg>